<svg xmlns="http://www.w3.org/2000/svg" xmlns:xlink="http://www.w3.org/1999/xlink" width="500" height="500" viewBox="0 0 500 500">
  <defs>
    <rect id="rect-1" width="480" height="428.83" x="10" y="36"/>
    <mask id="mask-2" maskContentUnits="userSpaceOnUse" maskUnits="userSpaceOnUse">
      <rect width="500" height="500" x="0" y="0" fill="black"/>
      <use fill="white" xlink:href="#rect-1"/>
    </mask>
    <linearGradient id="linearGradient-6" x1="202.649" x2="292.28" y1="242.319" y2="242.319" gradientUnits="userSpaceOnUse">
      <stop offset="0" stop-color="rgb(128,128,128)" stop-opacity=".25"/>
      <stop offset=".535" stop-color="rgb(128,128,128)" stop-opacity=".12"/>
      <stop offset="1" stop-color="rgb(128,128,128)" stop-opacity=".1"/>
    </linearGradient>
  </defs>
  <g>
    <use fill="none" xlink:href="#rect-1"/>
    <g mask="url(#mask-2)">
      <path fill="rgb(63,61,86)" fill-rule="evenodd" d="M250.94932203 42.00213498L100.3126692 134.70160892s0 191.19267301 150.63665283 295.47960842c150.63664723-104.28690748 150.63664723-295.47960842 150.63664723-295.47960842L250.94932203 42.00213498z"/>
      <g opacity=".04">
        <path fill="rgb(247,202,240)" fill-rule="evenodd" d="M251.84871707 42.00213498l-2.57498461 1.58461064v384.78614753c.8551092.60457506 1.70995032 1.2094238 2.5749846 1.80829626C402.48536432 325.89428193 402.48536432 134.701581 402.48536432 134.701581L251.84871707 42.00213498z"/>
      </g>
      <g opacity=".7">
        <path fill="url(#linearGradient-6)" fill-rule="evenodd" d="M214.48113158 229.84784018l28.39733349 26.03084248 35.20301978-50.78376866 14.198946 11.83245501-49.40196578 62.61622366-40.2297885-44.9627705 11.83245501-4.732982z"/>
      </g>
      <path fill="rgb(58,210,159)" fill-rule="evenodd" d="M221.18348986 231.41172377l23.03544686 21.11577975 32.63378245-47.99111937 11.5180027 9.59833558-44.15178515 57.58945495-32.63378244-36.47311667 9.59833558-3.83933424z"/>
      <g opacity=".5">
        <path fill="rgb(77,138,240)" fill-rule="evenodd" d="M102.31921564 62.78503093c-.95589568-.41631296-1.44776052-1.48317161-1.14357871-2.48043109.02377623-.07385516.03875529-.15025774.04462653-.22762326.0275893-.45319795-.24507693-.87092645-.67105463-1.02806512-.4259777-.15713867-.90460024-.01655266-1.17793053.34599405-.0457766.06264542-.08400223.13047295-.11388424.2020761-.4163148.95589408-1.4831705 1.44775996-2.48043109 1.1435843-.07385493-.02377813-.15025752-.03875907-.22762326-.04463212-.45319796-.0275893-.87092645.24507693-1.02806512.67105463-.15713867.4259777-.01655266.90460024.34599405 1.17793053.06264412.04577862.1304719.08400439.2020761.11388424.95589568.41631297 1.44776051 1.48317161 1.14357871 2.48043109-.0237761.0738571-.03875516.15026152-.04462654.22762884-.0275893.45319796.24507694.87092646.67105464 1.02806512.4259777.15713867.90460024.01655266 1.17793053-.34599404.04577542-.06264618.08400097-.13047357.11388424-.2020761.41631094-.95589787 1.48317013-1.44776536 2.48043109-1.1435843.07385516.02377623.15025774.03875529.22762325.04462654.45319483.02758553.8709188-.24507979 1.02805672-.67105418.15713792-.4259744.0165557-.90459358-.34598564-1.1779254-.06264514-.04577855-.13047268-.08400606-.2020761-.11388983z"/>
      </g>
      <g opacity=".5">
        <path fill="rgb(77,138,240)" fill-rule="evenodd" d="M20.77385661 244.30723424c-.95589567-.41631297-1.44776051-1.48317161-1.1435787-2.48043109.02377622-.07385517.03875528-.15025774.04462653-.22762326.0275893-.45319796-.24507694-.87092645-.67105463-1.02806512-.4259777-.15713867-.90460025-.01655266-1.17793053.34599405-.0457766.06264541-.08400224.13047295-.11388424.2020761-.41631481.95589408-1.4831705 1.44775996-2.4804311 1.1435843-.07385493-.02377813-.1502575-.03875907-.22762325-.04463213-.45319796-.0275893-.87092646.24507694-1.02806512.67105464-.15713867.4259777-.01655266.90460024.34599404 1.17793053.06264412.04577861.1304719.08400438.2020761.11388423.95589568.41631297 1.44776052 1.48317162 1.14357872 2.4804311-.02377611.0738571-.03875516.15026152-.04462654.22762884-.0275893.45319796.24507694.87092645.67105463 1.02806512.4259777.15713867.90460025.01655266 1.17793053-.34599405.04577542-.06264618.08400097-.13047356.11388424-.2020761.41631094-.95589786 1.48317014-1.44776536 2.4804311-1.1435843.07385516.02377624.15025773.0387553.22762325.04462654.45319482.02758554.8709188-.24507978 1.02805671-.67105417.15713793-.4259744.0165557-.90459359-.34598563-1.1779254-.06264514-.04577855-.13047269-.08400607-.2020761-.11388983z"/>
      </g>
      <g opacity=".5">
        <ellipse cx="428.003" cy="177.867" fill="rgb(245,95,68)" rx="3.351" ry="3.351"/>
      </g>
      <g opacity=".5">
        <ellipse cx="77.805" cy="417.476" fill="rgb(245,95,68)" rx="3.351" ry="3.351"/>
      </g>
      <g opacity=".5">
        <ellipse cx="484.973" cy="306.887" fill="rgb(245,95,68)" rx="3.351" ry="3.351"/>
      </g>
      <g opacity=".5">
        <path fill="rgb(77,138,240)" fill-rule="evenodd" d="M403.3668082 78.98239677c-.95589568-.41631297-1.44776052-1.48317162-1.14357871-2.4804311.02377623-.07385516.03875529-.15025774.04462653-.22762325.0275893-.45319796-.24507693-.87092646-.67105463-1.02806512-.4259777-.15713867-.90460024-.01655266-1.17793053.34599404-.0457766.06264542-.08400223.13047295-.11388424.2020761-.4163148.95589408-1.4831705 1.44775996-2.48043109 1.1435843-.07385493-.02377813-.15025751-.03875906-.22762326-.04463212-.45319795-.0275893-.87092645.24507693-1.02806512.67105463-.15713867.4259777-.01655266.90460025.34599405 1.17793053.06264412.04577862.1304719.0840044.2020761.11388424.95589568.41631297 1.44776052 1.48317162 1.14357871 2.4804311-.0237761.0738571-.03875516.15026151-.04462653.22762884-.0275893.45319795.24507693.87092645.67105463 1.02806512.4259777.15713867.90460024.01655266 1.17793053-.34599405.04577542-.06264618.08400097-.13047357.11388424-.2020761.41631094-.95589787 1.48317014-1.44776536 2.48043109-1.1435843.07385516.02377623.15025774.0387553.22762326.04462654.45319482.02758553.87091879-.24507979 1.02805671-.67105418.15713792-.42597439.0165557-.90459358-.34598564-1.1779254-.06264514-.04577855-.13047268-.08400606-.2020761-.11388982z"/>
      </g>
      <g opacity=".5">
        <path fill="rgb(77,138,240)" fill-rule="evenodd" d="M459.21979383 429.73914654c-.95589568-.41631297-1.44776051-1.48317161-1.1435787-2.48043109.02377622-.07385516.03875528-.15025774.04462653-.22762326.0275893-.45319796-.24507694-.87092645-.67105463-1.02806512-.4259777-.15713867-.90460025-.01655266-1.17793053.34599405-.0457766.06264542-.08400224.13047295-.11388424.2020761-.41631481.95589408-1.4831705 1.44775996-2.4804311 1.1435843-.07385493-.02377813-.15025751-.03875907-.22762325-.04463213-.45319796-.0275893-.87092646.24507694-1.02806513.67105464-.15713866.4259777-.01655265.90460024.34599405 1.17793053.06264412.04577862.1304719.08400439.2020761.11388424.95589568.41631296 1.44776052 1.48317161 1.14357871 2.48043109-.0237761.0738571-.03875515.15026152-.04462653.22762884-.0275893.45319796.24507693.87092646.67105463 1.02806512.4259777.15713867.90460025.01655266 1.17793053-.34599404.04577542-.06264618.08400097-.13047357.11388424-.2020761.41631094-.95589787 1.48317014-1.44776536 2.4804311-1.1435843.07385516.02377623.15025773.03875529.22762325.04462653.45319482.02758554.8709188-.24507978 1.02805671-.67105417.15713793-.4259744.0165557-.90459358-.34598564-1.1779254-.06264513-.04577855-.13047268-.08400607-.2020761-.11388983z"/>
      </g>
      <g opacity=".5">
        <path fill="rgb(77,138,240)" fill-rule="evenodd" d="M16.86414762 138.18656154c-.95589568-.41631297-1.44776052-1.48317162-1.14357871-2.4804311.02377623-.07385516.03875529-.15025773.04462653-.22762325.0275893-.45319796-.24507693-.87092646-.67105463-1.02806512-.4259777-.15713867-.90460024-.01655266-1.17793053.34599404-.0457766.06264542-.08400223.13047295-.11388424.2020761-.4163148.95589408-1.4831705 1.44775996-2.48043109 1.1435843-.07385493-.02377813-.15025751-.03875906-.22762326-.04463212-.45319795-.0275893-.87092645.24507694-1.02806512.67105463-.15713867.4259777-.01655266.90460025.34599405 1.17793053.06264412.04577862.1304719.0840044.2020761.11388424.95589568.41631297 1.44776052 1.48317162 1.14357871 2.4804311-.0237761.0738571-.03875516.15026151-.04462653.22762884-.0275893.45319796.24507693.87092645.67105463 1.02806512.4259777.15713867.90460024.01655266 1.17793053-.34599405.04577542-.06264618.08400097-.13047356.11388424-.2020761.41631094-.95589787 1.48317014-1.44776536 2.48043109-1.1435843.07385516.02377624.15025774.0387553.22762326.04462654.45319482.02758554.87091879-.24507978 1.02805671-.67105418.15713792-.42597439.0165557-.90459358-.34598564-1.1779254-.06264514-.04577855-.13047268-.08400606-.2020761-.11388982z"/>
      </g>
      <g opacity=".5">
        <ellipse cx="54.347" cy="194.622" fill="rgb(71,230,177)" rx="3.351" ry="3.351"/>
      </g>
      <g opacity=".5">
        <ellipse cx="486.649" cy="221.432" fill="rgb(71,230,177)" rx="3.351" ry="3.351"/>
      </g>
      <g opacity=".5">
        <rect width="1.676" height="9.495" x="335.846" y="36" fill="rgb(71,230,177)" rx="0" ry="0"/>
        <rect width="1.676" height="9.495" x="335.846" y="36" fill="rgb(71,230,177)" rx="0" ry="0" transform="rotate(90.000032 336.68371083 40.74773278)"/>
      </g>
      <g opacity=".5">
        <rect width="1.676" height="9.495" x="341.99" y="407.981" fill="rgb(71,230,177)" rx="0" ry="0"/>
        <rect width="1.676" height="9.495" x="341.99" y="407.981" fill="rgb(71,230,177)" rx="0" ry="0" transform="rotate(90.000032 342.82753925 412.7286171)"/>
      </g>
      <g opacity=".5">
        <rect width="1.676" height="9.495" x="24.745" y="428.088" fill="rgb(71,230,177)" rx="0" ry="0"/>
        <rect width="1.676" height="9.495" x="24.745" y="428.088" fill="rgb(71,230,177)" rx="0" ry="0" transform="rotate(90.000032 25.58258085 432.83569192)"/>
      </g>
      <g opacity=".5">
        <rect width="1.676" height="9.495" x="406.221" y="257.178" fill="rgb(71,230,177)" rx="0" ry="0"/>
        <rect width="1.676" height="9.495" x="406.221" y="257.178" fill="rgb(71,230,177)" rx="0" ry="0" transform="rotate(90.000032 407.05847272 261.92555588)"/>
      </g>
      <g opacity=".5">
        <path fill="rgb(71,230,177)" fill-rule="evenodd" d="M454.36970488 104.70922587l3.59860786 3.29867733 5.09826053-7.4977048 1.7995832 1.49965267-6.89784373 8.99735746-5.09826053-5.6981216 1.49965267-.59986106z"/>
      </g>
      <rect width="12.423" height="15.972" x="339.527" y="169.875" fill="rgb(247,202,240)" rx="0" ry="0" transform="rotate(-2.22071 345.73819894 177.86123002)"/>
      <path fill="rgb(255,185,185)" fill-rule="evenodd" d="M295.6375751 225.53735808s-17.19099045-8.21360602-16.91589216-1.12008136c.2750983 7.09352467 17.32850609 11.76037115 17.32850609 11.76037115l-.41261393-10.64028979z"/>
      <path fill="rgb(202,205,247)" fill-rule="evenodd" d="M305.06922861 285.55725571s-8.11045114 19.85103916-11.10706994 34.17562646c-2.9966188 14.3245873-7.56030482 34.03808847-1.6900108 48.01883362 5.870294 13.98074515 22.56008768 55.0706808 22.73200876 59.5041344.17192107 4.43345361-1.42953483 8.93567342 2.1172247 8.79813544 3.54675955-.13753797 22.84765238-6.21413057 23.63119157-8.9085903.7835392-2.69445973-6.585067-9.51290844-6.585067-9.51290844l-18.19540028-57.01597884 18.9841338-37.14516214 13.69318605 55.4145397 2.681971 69.1618808s13.16282286-4.06252835 15.07373782-.58453501c0 0 5.89737712-8.220906 6.64650529-11.80205423.74912817-3.58114822-2.78512589-71.82194627-2.78512589-71.82194627s12.08231892-77.72662337 2.32871763-77.34839812c-9.7536013.37822525-47.9573395-23.00499023-67.5260027-.93357707z"/>
      <path fill="rgb(87,90,137)" fill-rule="evenodd" d="M316.98384895 432.5072261s-8.99714522 19.88542225-9.8494562 20.80649384c-.85231097.92107158-6.7152994 10.02867166-2.2818458 9.85675059 4.43345362-.17192108 14.90182232-5.01798304 22.6069651-12.42096675 7.70514278-7.40298371 17.86405244-20.2292644 16.9430032-21.0815698-.92104925-.85230538-7.23106264-3.27168916-7.23106264-3.27168916l-20.18760366 6.11098128z"/>
      <path fill="rgb(87,90,137)" fill-rule="evenodd" d="M352.93285238 443.54552426s-.54284634 8.90129032-2.17869093 12.51682164c-1.63584458 3.61553131-1.4295404 8.935679 3.0039132 8.76375792 4.43345362-.17192107 15.8916657-2.39230066 15.8916657-2.39230066s.6803843-5.3545252-.24068728-6.20683617c-.92107159-.85231098-4.84606754-10.46836313-3.17583986-13.19720596 1.67022768-2.72884283-13.30036083.51576323-13.30036083.51576323z"/>
      <path fill="rgb(255,185,185)" fill-rule="evenodd" d="M359.49179136 154.68335523s9.45144223 14.72990124 13.13573974 18.13912839c3.68429752 3.40922715-6.68091073 10.91534898-6.68091073 10.91534898l-18.55173674 2.49544996s.23338729-16.88150347-.72207298-18.62050293c-.95546027-1.73899947 12.8189807-12.9294244 12.8189807-12.9294244z"/>
      <path fill="rgb(203,202,247)" fill-rule="evenodd" d="M343.36673838 173.95716495s3.8218355 6.95598668 7.36860062 6.8184487c3.54676512-.13753797 21.8921921-7.95313003 22.67575364-10.64758418.78356153-2.69445415 6.07659818 19.30088725 6.07659818 19.30088725l-44.88991586 78.99884268-10.9497265-7.56761039 5.30554772-46.38299463 4.35738743-25.03364328 10.05575477-15.48634615z"/>
      <path fill="rgb(87,90,137)" fill-rule="evenodd" d="M375.06683205 244.65784019c-1.79064672 3.74586984-2.90901897 7.65212154-2.75394316 11.65110595.0068755.17734998.013751.35466645.02950155.53164781.42480105 8.20664115 3.4480338 17.69783395 4.53265968 24.60012916.78701325 4.9512834.56304278 8.5653402-2.33448724 9.41478033-7.02475846 2.04845293 1.02422647 3.51237644-26.15371905 12.55850472-27.17794552 9.04612828-31.92086935 1.23783063-31.98963555-.53555194-.0687662-1.77338256 3.8489186-15.24565888 2.92784702-16.09794752-.92107159-.85228863-12.88775249 11.15607535-16.5032838 9.52020843-3.61553133-1.63586693-.41260835-10.64028978-.41260835-10.64028978s8.14483982-18.96432275 7.97291875-23.3977987c-.17192108-4.43347595 12.33760058-25.34310233 12.33760058-25.34310233l8.50848185-55.38745658s3.27168917-7.23106264 7.67075969-8.28970013c4.3990705-1.05863749 8.04897376 1.46390675 8.04897376 1.46390675l-7.36133415 16.26993004-7.76661457 28.71792962 1.29930242 10.60592344s9.0315283-18.99873377 14.96329411-26.33295128c5.9317658-7.33421752 18.57881985-24.69710112 18.57881985-24.69710112s2.95264575-9.96270929.72368714-12.93996944c-2.22929373-2.98607934 9.29768454-3.43307079 14.21251828 8.8086749 2.60488272 6.4881118 6.8340652 16.16343514 9.4834013 25.17182356 2.36080518 7.98055944 3.47597147 15.44111641 1.13709977 19.70554772-3.57471396 6.51464197-12.56693294 15.07756374-17.15123988 24.64175639z"/>
      <g opacity=".1">
        <path fill="rgb(0,0,0)" fill-rule="evenodd" d="M392.21809427 220.01609497c-3.57475305 6.5146308-12.56695528 15.07755257-17.15126222 24.64174522-1.19736513-4.31379418-2.65809385-8.77716265-2.65809385-8.77716265s-5.60251245-29.97556571 10.96952638-37.72239158c2.74588758-.2654961 5.49216403.50185693 7.70271876 2.1522613 2.36081634 7.98055943 3.47598263 15.44112757 1.13711093 19.7055477z"/>
      </g>
      <path fill="rgb(87,90,137)" fill-rule="evenodd" d="M326.4310631 218.12707439l-14.04951693 4.09691144-19.50721376.75645608-2.00679777 16.95026408 32.05840174 2.30892892s8.00732419-22.51109904 3.50512672-24.11256052z"/>
      <path fill="rgb(255,185,185)" fill-rule="evenodd" d="M349.34072904 275.11922634s-18.79544006 3.1183448-14.5055789 8.77439793c4.28986118 5.65605312 20.94036787-.29032382 20.94036787-.29032382l-6.43478897-8.4840741z"/>
      <g opacity=".1">
        <path fill="rgb(0,0,0)" fill-rule="evenodd" d="M372.34239044 256.84059395c.42480105 8.20664115 3.4480338 17.69783395 4.53265968 24.60012916-5.98752942 5.6668886-11.68130565 10.66525607-13.82708241 10.74846585-4.43345361.17192107-11.56136137-.43969705-14.18704932.5501519-2.62568796.98984896-4.16568323-15.8228939-4.16568323-15.8228939s1.56707839-5.38893622 8.557437-8.32406647c4.71836527-1.98568535 13.76273419-7.37148822 19.08971828-11.75178654z"/>
      </g>
      <path fill="rgb(87,90,137)" fill-rule="evenodd" d="M383.17196599 192.83814387s15.0049772-2.35791199 14.1943549 22.53819331c-.81062231 24.8961053 1.58167277 40.78775982-4.45324233 45.46191746-6.0349151 4.67415764-25.63796141 25.85886556-30.07141503 26.03078663-4.4334536.17192108-11.56136695-.43969146-14.1870549.55015191-2.62568795.98984337-4.16567764-15.8228995-4.16567764-15.8228995s1.56707838-5.38891387 8.55744817-8.32405529c6.99036978-2.93514142 23.45927049-13.3420495 23.3217381-16.8888258-.1375324-3.54677629-4.16568323-15.8228939-4.16568323-15.8228939s-5.60251804-29.97554896 10.96953196-37.72237482z"/>
      <ellipse cx="346.26" cy="156.973" fill="rgb(255,185,185)" rx="19.522" ry="19.522"/>
      <path fill="rgb(47,46,65)" fill-rule="evenodd" d="M333.11564337 128.99199836c-.4708641.40569387-1.03473784.688663-1.6414187.82371425-.63400702.1130216-1.2403389-.30698154-1.35738953-.94025709-.44664516.9262715-.95057314 1.9134786-1.86247925 2.38876517-.9119061.47528657-2.32198734.0767476-2.45343176-.94315585-.1331432.77438844-.47573468 1.49755385-.99063089 2.0910911-.56579074.53945047-1.5918101.6756033-2.08576831.0697157.39934885 2.18242748.15286404 4.42682944.27827633 6.64194768.1254123 2.21511824.71609113 4.5634682 2.38965323 6.0200582 2.44070287 2.12427895 6.11091984 1.60000373 9.32146675 1.19754387.48551024-.10188412.98927488-.0743247 1.4607734.07991445 1.2021294.51217188 1.14759454 2.18558318 1.16380308 3.49216324.20247896 4.73397804 3.7944123 8.62939627 8.49647346 9.21434631 1.27432688.19669385 2.57461084-.1206507 3.61505099-.88228169.91155423-.77264227 1.37717823-2.03193162 2.42170167-2.6123726 1.69908692-.94413887 3.75976049.43278245 5.00201467 1.9278049 1.24225418 1.49502245 2.46657955 3.33405461 4.39100534 3.60772307 2.54517029.36192735 4.48368779-2.2318853 5.43475801-4.62025392 2.65088511-6.76277579 2.45785967-14.3095675-.53527826-20.92798526-5.31437807-11.58450684-23.4684248-13.41682548-33.04858023-6.62848153z"/>
    </g>
  </g>
  <g transform="translate(87 119)">
    <path fill="rgb(236,193,168)" fill-rule="evenodd" d="M76.27795667 25.85508702c5.79481125 10.80112172 5.1062355 38.19906521-2.38304138 40.1295271-2.98671341.76986694-9.34929657-1.1159935-15.82492066-5.01914597l4.06462097 28.7556839h-24l8.2622738-38.50986862c-4.60790969-5.40875244-7.72663928-12.03725243-7.20549775-19.4646759 1.50155401-21.40047408 31.29175377-16.6926427 37.08656502-5.8915205z"/>
    <path fill="rgb(25,24,71)" fill-rule="evenodd" d="M64.30203195 17.28348314c-2.71786583-.44570038-10.03583941-.75213176-11.38540445-.75193393-.86243577 0-1.79705344.19703399-2.30784892-.59486065-.41830008-.6484713-.26506144-1.74521472-.38990064-2.49774213-.14495548-.87418996-.35085142-1.73710388-.55911397-2.59784172-.5926411-2.44927492-1.48880119-4.77945902-2.74271534-6.96720892-2.3528147-4.10447913-5.79959948-7.31953576-10.15102475-9.19036954C31.96079922-7.38216543 26.5232926-7.8551657 21.35459456-7.43617174c-5.53118533.44827211-10.53816433 2.27419955-15.76050576 3.99251002C.61748142-1.80626178-4.59499909-1.16174699-9.7999853-1.96135682c-5.24423265-.80554458-9.20674337-3.64789836-13.63015334-6.34564185-4.52833011-2.76183889-9.70333913-4.56818162-15.05663353-4.15294633-4.99711809.38773757-9.60275779 2.45105535-13.73487627 5.20735513-3.86607096 2.5788505-7.05607748 5.68154236-8.85707528 10.04833783-1.9374729 4.69736153-1.93569793 9.85347991 1.25036422 14.00484364 4.61806446 6.0174497 13.19134255 7.57354344 20.32394074 7.41884406 4.12561028-.0892192 8.1774609-.84234009 12.07252296-2.21228023 5.19453363-1.82711438 9.68342008-4.92387149 14.543077-7.4364505 2.28063278-1.17903874 4.6379835-2.14739354 7.10893198-2.84492551 2.39778047-.67715598 4.75947-.98774168 6.9304494.4607351 2.29660747 1.5323547 4.35458076 3.03760734 6.98192337 3.99686218 2.52045028.92028325 5.19019484 1.43502466 7.87551964 1.414253 5.22470804-.04035636 10.37506478-1.66826068 15.44949245-2.75867368 4.13803504-.88902686 8.56558658-1.77508634 12.78428392-.92048108 1.76037083.356679 4.33170343 1.09298473 4.96753534 2.92247302-10.7012639 1.93947915-14.90417393 15.17399112-11.88732511 24.88938898 1.62823454 5.24375498 11.41577608 11.37364912 15.221301 8.61692794 2.41090954-1.74646219.94723965-4.03925071 0-5.55281201-1.81401421-2.89853616-2.4346603-6.62180596.9219957-8.63982176 2.89536233-1.7404669 5.93963635 2.39268011 5.9972241 2.38813013.79577597-.06271062 7.67197183-3.95150145 12.40954562-9.62623357 4.67363414.27704812 5.38269208-2.80462597 4.26671978-5.32485621-1.1159723-2.52023025-8.08151219-5.69196254-11.83674644-6.30818832z"/>
  </g>
  <g transform="translate(19 123)">
    <g transform="translate(0 150.12676056)">
      <path fill="rgb(232,187,161)" fill-rule="evenodd" d="M102.82666667 0l30.23010626 98.76588365 14.64421754 83.9940222h11.48207764L143.70908251 0h-40.88241584z"/>
      <path fill="rgb(236,193,168)" fill-rule="evenodd" d="M92.01197428 0c2.05330205 54.2277786-.36315703 82.19944884-.8227106 87.1262783-.45955356 4.92682945-6.752346 36.87265548-21.64976817 97.28756335l12.23501168-4.1993507c23.54398666-55.4094115 31.5669379-84.20666118 34.26725494-91.48257886C118.74207918 81.45599442 125.91398717 51.8786904 137.55748611 0H92.01197428z"/>
      <path fill="rgb(228,228,228)" fill-rule="evenodd" d="M72.21272953 179.5058067c-1.04159226-.534007-2.31711825-.06334948-2.76220526 1.01922867 0 0-1.16719094 2.83894021-1.16719094 5.01050318 0 2.17156297.72399824 6.33770089.72399824 6.33770089h45.3094558s1.7661482-5.83506521-2.03904635-6.3003279c-3.80519455-.46526267-6.3220795-.8401899-6.3220795-.8401899l-20.87494812-9.30017337c-.51445658-.22919987-1.11662267.01146402-1.33139333.5321095l-1.27653889 3.09457628s-3.5226149 1.64251173-5.72498066 1.64251173c-2.20236576 0-4.53507099-1.19593909-4.53507099-1.19593909z"/>
      <path fill="rgb(228,228,228)" fill-rule="evenodd" d="M147.72606286 179.5058067c-1.04159225-.534007-2.31711825-.06334948-2.76220526 1.01922867 0 0-1.16719093 2.83894021-1.16719093 5.01050318 0 2.17156297.72399823 6.33770089.72399823 6.33770089h45.3094558s1.7661482-5.83506521-2.03904634-6.3003279c-3.80519456-.46526267-6.3220795-.8401899-6.3220795-.8401899l-20.87494813-9.30017337c-.51445658-.22919987-1.11662267.01146402-1.33139333.5321095l-1.27653888 3.09457628s-3.52261491 1.64251173-5.72498067 1.64251173c-2.20236576 0-4.53507099-1.19593909-4.53507099-1.19593909z"/>
      <path fill="rgb(230,183,222)" fill-rule="evenodd" d="M98.81 0l12.85333333 50.32017812h39.25915536L145.06878874 0H98.81z"/>
      <path fill="rgb(247,202,240)" fill-rule="evenodd" d="M91.58 0c-6.3437958 19.00333366-2.41 50.32017812-2.41 50.32017812h40.0624887L140.24878873 0H91.58z"/>
    </g>
    <g transform="translate(17.67333333 65.83098592)">
      <path fill="rgb(236,193,168)" fill-rule="evenodd" d="M145.87107658 70.6858902l28.32789612 27.63502502c8.24238587 3.51581574 14.99583435 7.3979721 20.26037598 11.646492 1.18389892 1.4280777 2.47277832 4.16433716-3.09747315 2.93989564-5.57025146-1.2244339-11.48439025-2.26184082-12.53131103-.45035553-.4584198.79320526-.12463379 1.77131652.23304748 2.81943512.45915223 1.34539795.95761109 2.80603027-.12997436 4.13867187-1.28988648 1.580513-5.62788391-3.4467926-13.01402283-15.08192444l-29.45726013-17.36727905 9.40872192-16.27996063zM15.83124352 155.25305176c7.35775375-5.04512024 17.96072196-13.875 19.3933506-16.78141785 2.9304657-5.94514465 12.91000175-63.88835907 12.91000175-63.88835907l20.89739227.08217621s-19.35476684 62.48051453-20.89739227 66.3035431c-2.0039215 4.96620177 1.40000153 12.18167113 3.70814514 17.07437133.35709381.756958.68795777 1.45829773.9685135 2.08712768-3.20269013 1.43310547-4.74114991-.29911804-6.36309052-2.12533569-1.8319378-2.06266785-3.77038002-4.24525452-8.33357811-2.12228393-1.76298905.82020568-3.43125916 1.78991699-5.0611496 2.73731994-5.62996674 3.27252197-10.8019619 6.27885437-17.83773422 1.9375763-1.11543084-.68826294-2.33775997-3.2796631.61554146-5.30471802z"/>
      <path fill="rgb(87,90,137)" fill-rule="evenodd" d="M102.57880866 4.2785047l6.9464218-1.19033034c11.96126746 29.8577598 32.84298917 56.98788468 62.64516513 81.39037465l-22.51746488 27.33990151c-29.79927447-34.7451669-48.1684132-70.59196505-47.07412205-107.53994583z"/>
      <path fill="rgb(255,222,250)" fill-rule="evenodd" d="M72.3 91.52112676h61.85666667s-21.49615225-52.23309785-21.49615225-88.74279399L94.0014138 0C79.33711397 23.5694252 75.19587713 52.5881598 72.3 91.52112676z"/>
      <path fill="rgb(87,90,137)" fill-rule="evenodd" d="M30.82666588 127.56338048c7.44703102-84.01719284 54.39125824-130 54.39125824-130l.01633453.01452303c.0027008-.0048418.00540161-.0096829.00809479-.01452303h1.34082031c2.40663147.08287263 7.3312149.2986226 7.3312149.2986226l4.96343232 14.18433238c.78753662 25.94102573 9.19813537 104.55632877 9.19813537 104.55632877H63.50344658c.07582855 3.60457611.24370575 7.2599411.5135498 10.96071625h-33.1903305z"/>
      <path fill="rgb(0,0,0)" fill-opacity=".1" fill-rule="evenodd" d="M66.7851715 116.56338501c-.4023056-17.74970245 1.17235566-34.4159851 3.7992096-49.49816895 1.37391663 17.89669037 4.24531556 39.43164826 10.24228669 49.49816895H66.7851715z"/>
      <path fill="rgb(255,255,255)" fill-opacity=".2" fill-rule="evenodd" d="M82.83242213 83.49295775l19.99424454-9.28917617v9.28917617H82.83242213z"/>
    </g>
  </g>
</svg>
